<?xml version="1.0" encoding="UTF-8"?>
<svg width="67px" height="46px" viewBox="0 0 67 46" version="1.1" xmlns="http://www.w3.org/2000/svg" xmlns:xlink="http://www.w3.org/1999/xlink">
    <!-- Generator: Sketch 48.2 (47327) - http://www.bohemiancoding.com/sketch -->
    <title>creative_background2@1x</title>
    <desc>Created with Sketch.</desc>
    <defs>
        <polygon id="path-1" points="0.0362245309 0.0944480235 4.26188989 0.0944480235 4.26188989 10.9107052 0.0362245309 10.9107052"></polygon>
        <polygon id="path-3" points="0.0417435641 0.0350181682 5.39731944 0.0350181682 5.39731944 10.6181991 0.0417435641 10.6181991"></polygon>
    </defs>
    <g id="creative-1280" stroke="none" stroke-width="1" fill="none" fill-rule="evenodd" transform="translate(-962.000000, -521.000000)">
        <g id="creative_background2" transform="translate(962.000000, 521.000000)">
            <path d="M65.9970781,24.8812224 C66.0133386,24.7181794 65.9612838,24.5556603 65.8521058,24.4327494 C58.1302474,15.7254557 46.8275846,8.19498482 34.794042,8.01308078 C27.9814015,7.84773253 22.7838343,9.24596264 16.9022684,12.4349416 C11.8627664,14.8873978 7.74209087,17.2478542 3.04279329,20.0236721 C2.68569482,20.2344964 1.78756366,20.9521581 2.04604298,22.0838192 C2.24000806,22.932565 2.98049639,23.5512063 3.85043557,23.6617529 L5.40923056,23.8600031 C17.2067841,24.7644937 24.4792602,30.3457832 35.6029514,32.9413736 C41.2900243,34.2513761 47.6016499,34.3674761 53.2854496,33.1671819 C58.1115583,32.1588509 61.6993315,28.8446558 65.7195929,25.7752347 C65.8494661,25.6761096 65.932775,25.5281554 65.9488244,25.3663697 L65.9970781,24.8812224 Z" id="Fill-1" fill="#E98026"></path>
            <g id="Group-7" transform="translate(24.000000, 10.000000)">
                <path d="M12.3420783,0.716989319 C21.645511,4.87372086 17.8690312,19.877275 5.93903184,15.796885 C-3.83405039,12.5758298 -0.560537066,-1.16814007 10.1519515,0.181044516" id="Fill-3" fill="#2A2826"></path>
                <path d="M12.3096507,0.7707081 C15.3991179,2.17127047 17.4050916,5.06997154 17.4855448,8.37990201 C17.5565707,11.2977662 16.1053063,14.2784024 13.3506144,15.6432282 C11.7647971,16.4289146 9.93365654,16.575797 8.19250354,16.3012988 C6.24427193,15.9941715 4.26947255,15.2705321 2.78339156,13.9862948 C0.309482366,11.8483163 -0.424237986,8.40300129 0.698785878,5.42350452 C1.32773495,3.75486616 2.51792813,2.29805756 4.0836053,1.36207047 C5.90039073,0.276093405 8.05741501,-0.00948831541 10.1519836,0.24315362 C10.2339366,0.253097706 10.2331867,0.128693047 10.1519836,0.118956129 C6.46849104,-0.325523799 2.79871088,1.10518158 1.03613226,4.37657871 C-0.470303068,7.17252423 -0.259367841,10.7159335 1.82030995,13.190768 C3.06578123,14.6731619 4.81957534,15.5695798 6.69110323,16.0969271 C8.49931842,16.6064579 10.4626551,16.7555156 12.2796548,16.2009257 C15.3190932,15.2730181 17.2466491,12.5139486 17.5671764,9.52067513 C17.9093435,6.32561957 16.4319399,3.13408588 13.6505731,1.35046903 C13.2439148,1.08964394 12.8162594,0.86351957 12.3744632,0.663394839 C12.3001163,0.62962638 12.2347681,0.736732473 12.3096507,0.7707081" id="Fill-5" fill="#231F20"></path>
            </g>
            <path d="M66.5639403,26.719707 C64.6128829,26.9253922 63.9556332,24.3002659 63.4759067,22.9065575 C63.2283504,22.1869703 62.995968,21.4489481 62.61641,20.7829052 C61.9662697,19.6421089 61.1161108,18.6178259 60.1937966,17.6772256 C58.3578692,15.8050353 56.1882237,14.1955958 53.9893978,12.7519679 C51.6465796,11.2135758 49.1581775,9.8940218 46.6030319,8.7245372 C44.0225257,7.54345304 41.3559638,6.41788107 38.6125777,5.65117061 C35.7531065,4.85204351 32.8034413,4.35657643 29.8381777,4.13991315 C26.940825,3.92811754 23.9564615,3.92946392 21.0754499,4.33503438 C18.8075459,4.65433309 16.5866489,5.272217 14.5772305,6.36392238 C12.5011747,7.4918764 10.7248815,9.0543998 9.04684689,10.6792708 C7.99125763,11.7014824 6.99201315,12.7798276 5.92209895,13.7873326 C4.64802776,14.987266 3.29522243,16.104449 2.00205131,17.2842904 C1.96788367,17.3153606 2.37046767,17.6182957 2.47084839,17.5266384 C3.62299839,16.4755315 4.82077598,15.4733085 5.97059154,14.4197159 C6.96697103,13.5067681 7.89045246,12.5239122 8.84958709,11.5745086 C10.4107938,10.0290739 12.0257987,8.50114203 13.8861315,7.29810155 C18.2194804,4.49587476 23.5891063,4.11951034 28.6489951,4.31939568 C31.7334209,4.44119111 34.8081907,4.86447162 37.7992392,5.61264349 C40.6818425,6.3338878 43.4502707,7.45697414 46.1508942,8.66622868 C48.9411812,9.91556385 51.658464,11.3467636 54.1854904,13.0528316 C56.4970059,14.6132836 58.7892092,16.3453471 60.6098567,18.4491144 C61.4043075,19.3671371 62.1295741,20.3649067 62.5735413,21.4921357 C62.9251922,22.385095 63.1884528,23.3088138 63.5547469,24.1968019 C64.1473752,25.6338014 65.1963856,27.1741614 66.9994186,26.9840114 C67.0150169,26.9823543 66.7128136,26.7040683 66.5639403,26.719707" id="Fill-8" fill="#E98026"></path>
            <path d="M66.6921928,23.5857214 C64.3515646,22.2746274 62.9393413,19.8165816 61.2698876,17.7910881 C59.5728658,15.7320569 57.2144244,14.2054391 55.0372956,12.7181639 C50.5826267,9.67492533 45.7886596,6.99877586 40.6513649,5.33639429 C37.8624388,4.43377431 34.9373692,3.8610508 32,4.02927758 C32.0487741,4.02648276 32.1949905,4.45344556 32.3355872,4.44527608 C37.7716765,4.13397591 43.129303,6.25642816 47.9042906,8.68523589 C50.3600682,9.9343063 52.6987879,11.3350495 54.9792967,12.8857457 C57.3532186,14.5000779 59.877068,16.1339737 61.6749249,18.4183107 C63.2541466,20.4247778 64.7287158,22.7278186 67,24 C66.9430615,23.968182 66.8260036,23.6606441 66.6921928,23.5857214" id="Fill-10" fill="#E98026"></path>
            <g id="Group-196">
                <path d="M0.235255079,23.0124334 C4.15305349,20.571345 8.41606143,18.7569467 12.6044122,16.8175428 C16.4460646,15.0386822 19.9411249,12.5519766 23.9334741,11.0815253 C31.7024963,8.2199071 40.4982138,11.2452898 47.1396154,15.4458074 C50.962444,17.8635158 54.392844,20.8536725 57.3890202,24.1987908 C57.5244027,24.349982 57.7493313,24.1287544 57.6145868,23.9782906 C52.2995725,18.0443217 45.4557884,12.9889244 37.6290186,10.761478 C33.7866217,9.66791355 29.5604106,9.16072163 25.6514392,10.2054476 C21.5859217,11.291946 18.0937329,13.6709993 14.4271313,15.6052076 C12.0871297,16.8395721 9.5993027,17.8310954 7.20261698,18.956145 C4.76264714,20.1013534 2.35819794,21.320235 0.074242381,22.7431988 C-0.0984687302,22.8507472 0.0614804762,23.1207092 0.235255079,23.0124334" id="Fill-12" fill="#DBE6E3"></path>
                <path d="M57.3348565,24.8094681 C54.439074,26.9778929 51.6474073,29.5107352 48.1717025,30.765778 C46.3574914,31.4209399 44.3799279,31.6844594 42.4625581,31.8545625 C40.4436248,32.0336019 38.4091644,32.0443048 36.3878914,31.8964388 C28.6262073,31.3285626 21.4696502,28.0291653 14.1862184,25.6289141 C10.1278263,24.2913655 5.96957238,23.2044514 1.68710254,22.8697526 C1.48238032,22.8537502 1.48344381,23.1655886 1.68710254,23.181487 C9.55258349,23.7961234 16.8075137,26.9772694 24.1817676,29.4547269 C27.804447,30.6717381 31.4913613,31.726024 35.3137644,32.1144451 C39.2038057,32.5097243 43.3913057,32.4288812 47.183293,31.4048336 C51.174047,30.3270637 54.287739,27.4809283 57.4958692,25.0787028 C57.6566692,24.9583733 57.4978898,24.6873722 57.3348565,24.8094681" id="Fill-14" fill="#DBE6E3"></path>
                <path d="M58.7297008,28.2110519 C53.2128357,32.5991298 45.7770056,34.1708948 38.7905008,33.805542 C36.8330373,33.7030853 34.8880167,33.4399815 32.9763897,33.0155031 C32.7765595,32.9711329 32.6911611,33.2715409 32.8916294,33.316119 C39.7974151,34.8497485 47.4169103,34.4150868 53.8932579,31.5034871 C55.7054484,30.6887172 57.4080992,29.6621757 58.9553738,28.4314482 C59.1145786,28.3046762 58.8877357,28.0853191 58.7297008,28.2110519" id="Fill-16" fill="#DBE6E3"></path>
                <path d="M18.4835346,29.4567635 C15.797579,29.4517758 13.1875568,31.0531556 12.1845775,33.5139872 C12.1085378,33.7003005 12.4169505,33.7812475 12.4921394,33.5968047 C13.4417314,31.2672132 15.9514663,29.763718 18.4835346,29.768498 C18.6888949,29.7689136 18.6891076,29.4571792 18.4835346,29.4567635" id="Fill-18" fill="#DBE6E3"></path>
                <path d="M20.1110284,30.0746524 C17.7308268,31.5718089 15.0166887,32.6084298 12.9931824,34.599062 C12.8482284,34.7415247 13.0737951,34.9620248 13.218749,34.8194583 C15.2216237,32.8490888 17.9157681,31.8259764 20.2720411,30.343887 C20.4441141,30.2356112 20.2843776,29.9656492 20.1110284,30.0746524" id="Fill-20" fill="#DBE6E3"></path>
                <path d="M21.338043,31.0568444 C19.2212684,32.5321796 16.9014732,33.9923437 15.4654398,36.1672109 C15.3537732,36.3362749 15.6298557,36.4927656 15.7408843,36.3245329 C17.145651,34.1970493 19.4288621,32.7688899 21.4990557,31.3260791 C21.6648541,31.2105295 21.5056494,30.9400479 21.338043,31.0568444" id="Fill-22" fill="#DBE6E3"></path>
                <path d="M23.8048979,31.4817281 C21.6131471,31.5148758 19.7238535,32.5633427 17.9710059,33.7558308 C17.8036122,33.8695099 17.9629233,34.1398876 18.1320186,34.0249615 C19.836371,32.8655172 21.6706821,31.8258829 23.8048979,31.7934625 C24.0100456,31.7903452 24.0106837,31.4786107 23.8048979,31.4817281" id="Fill-24" fill="#DBE6E3"></path>
                <path d="M20.4699995,30.3866985 C19.8131868,31.2562298 19.2048694,32.1624418 18.462871,32.9668205 C18.3256805,33.1155179 18.550609,33.3366415 18.6884376,33.1872168 C19.4487281,32.3630948 20.0724662,31.4349575 20.745444,30.5441244 C20.8675329,30.3825421 20.5908122,30.2268827 20.4699995,30.3866985" id="Fill-26" fill="#DBE6E3"></path>
                <path d="M19.2951279,29.7606942 C17.1023137,30.580348 14.7341295,31.4284734 13.3167073,33.3683968 C13.1972771,33.5319535 13.4737851,33.6878207 13.5921517,33.5257188 C14.9540597,31.6618586 17.2765137,30.8475044 19.3799946,30.0613101 C19.5698279,29.9903386 19.4874073,29.6887875 19.2951279,29.7606942" id="Fill-28" fill="#DBE6E3"></path>
                <path d="M24.5677195,31.6118149 C22.9840735,33.3445388 22.3583148,35.8039156 22.7840306,38.0743814 C22.8209338,38.2715015 23.1284957,38.1880606 23.0916989,37.991564 C22.6876783,35.8366477 23.290891,33.4760907 24.7932862,31.8322111 C24.9297322,31.6829942 24.7048037,31.4617667 24.5677195,31.6118149" id="Fill-30" fill="#DBE6E3"></path>
                <path d="M24.9645084,31.8056305 C25.4605211,33.7140688 25.1494497,35.722262 24.1783751,37.4393992 C24.0789386,37.6150096 24.354383,37.7725394 24.4538195,37.5966172 C25.4660513,35.8070538 25.7890338,33.7117827 25.2721767,31.7227092 C25.2216608,31.5284986 24.9138862,31.6107965 24.9645084,31.8056305" id="Fill-32" fill="#DBE6E3"></path>
                <path d="M24.8780997,32.5782747 C24.2290505,34.815385 23.7640917,37.086682 23.5243806,39.4007907 C23.5036425,39.6001968 23.8229029,39.5988459 23.8434283,39.4007907 C24.0803743,37.1142186 24.5445886,34.8712893 25.1857679,32.6611961 C25.241814,32.4679207 24.9340394,32.3853111 24.8780997,32.5782747" id="Fill-34" fill="#DBE6E3"></path>
                <path d="M26.6293308,32.7472348 C26.2352006,34.1018248 25.4297117,35.2760245 24.5302102,36.3595095 C24.401953,36.513922 24.6264562,36.7358769 24.7557768,36.5799058 C25.6903737,35.4541288 26.5274483,34.2376371 26.936999,32.8300522 C26.9931514,32.6367769 26.6853768,32.5542712 26.6293308,32.7472348" id="Fill-36" fill="#DBE6E3"></path>
                <path d="M27.4992354,32.8730612 C27.7082116,34.5314884 26.618983,35.8491899 25.1976259,36.6123158 C25.017683,36.7089534 25.1783767,36.978292 25.3586386,36.8814465 C26.8696481,36.0703135 28.0401275,34.6336334 27.818283,32.8730612 C27.7935037,32.6764607 27.474137,32.6740707 27.4992354,32.8730612" id="Fill-38" fill="#DBE6E3"></path>
                <path d="M28.1777221,33.0150251 C29.9162125,36.081245 25.2836411,37.6458401 24.3408554,40.0854738 C24.2682189,40.2733457 24.5765252,40.3545006 24.6484173,40.1682912 C25.6461856,37.5866106 30.3339522,36.1748692 28.4531665,32.8577031 C28.3536237,32.6821966 28.0780729,32.8393108 28.1777221,33.0150251" id="Fill-40" fill="#DBE6E3"></path>
                <path d="M30.0612729,33.7680819 C29.959603,35.5843507 28.5520713,36.6020597 27.1796348,37.6043898 C25.9040824,38.5360601 24.7367935,39.5710185 24.4516713,41.1759312 C24.4168951,41.37222 24.7242443,41.4563883 24.7593395,41.2588526 C25.3648919,37.8496209 30.1787887,37.370589 30.3803205,33.7680819 C30.3914871,33.5675328 30.0724395,33.5681563 30.0612729,33.7680819" id="Fill-42" fill="#DBE6E3"></path>
                <path d="M30.8045687,33.2684132 C31.4419195,34.7422936 30.8783751,36.1384482 29.5757037,37.0344769 C29.4090544,37.1491952 29.5682592,37.4194689 29.7367163,37.3037116 C31.1977417,36.2986797 31.7902132,34.7532043 31.0800132,33.1109873 C31.0003576,32.9268562 30.7254449,33.085529 30.8045687,33.2684132" id="Fill-44" fill="#DBE6E3"></path>
                <path d="M31.5184803,33.3876412 C33.3728914,34.312869 34.0385311,36.5128829 34.2337883,38.3975253 C34.430747,40.2980663 34.2761152,42.4098593 33.4457406,44.1641967 C33.3600232,44.3451066 33.6349359,44.5036755 33.7211851,44.3215187 C34.6096263,42.4445657 34.7769137,40.178672 34.5244406,38.1480339 C34.2860057,36.2313867 33.5598533,34.0567272 31.679493,33.1184066 C31.4969978,33.0273801 31.335347,33.2961991 31.5184803,33.3876412" id="Fill-46" fill="#DBE6E3"></path>
                <path d="M32.2072616,34.6994301 C33.7783584,37.7770803 33.4052854,41.3884198 34.9779775,44.4692912 C35.0696505,44.6488503 35.3449886,44.4911126 35.2535283,44.3119693 C33.6824314,41.2343191 34.0555044,37.6229796 32.482706,34.5421082 C32.3911394,34.3625491 32.1158013,34.5202867 32.2072616,34.6994301" id="Fill-48" fill="#DBE6E3"></path>
                <path d="M34.4644278,34.5143326 C35.8224008,35.5671637 35.6858484,37.2698572 35.1668643,38.7239944 C34.6412865,40.1969396 33.7553976,41.5796897 32.7246611,42.7648001 C32.5923627,42.9169265 32.8170786,43.1384658 32.9502278,42.9853002 C34.69595,40.9780422 37.561104,36.5199281 34.6901008,34.2939364 C34.530896,34.1703856 34.3036278,34.3896388 34.4644278,34.5143326" id="Fill-50" fill="#DBE6E3"></path>
                <path d="M36.0671422,34.702163 C38.636539,35.4301668 39.6986486,38.751905 39.2694232,41.0931346 C39.2334771,41.2893194 39.5409327,41.3733838 39.5770914,41.175952 C40.0373708,38.6652429 38.9021994,35.1807793 36.1520089,34.4015471 C35.9544121,34.3455388 35.8699708,34.6463625 36.0671422,34.702163" id="Fill-52" fill="#DBE6E3"></path>
                <path d="M37.6842989,34.8499147 C38.5105259,34.7231427 39.4898957,34.7001783 40.1494735,35.288629 C40.6705846,35.753529 40.8462735,36.4778959 40.9044465,37.1391885 C41.0482306,38.7744434 40.6453798,40.4182191 40.4068386,42.0269766 C40.3068703,42.7009465 40.1936084,43.4038037 40.3020846,44.0830731 C40.333564,44.2808166 40.6411259,44.1968561 40.6096465,44.0003595 C40.4998941,43.3121538 40.642083,42.5734471 40.7474751,41.8935543 C40.8822195,41.0238152 41.0413179,40.1575052 41.1453275,39.2834019 C41.3072973,37.9225771 41.5035116,35.9543898 40.2673084,34.9779337 C39.5208433,34.3884439 38.4974449,34.4116161 37.5995386,34.5492988 C37.3972624,34.5803684 37.4830862,34.8807764 37.6842989,34.8499147" id="Fill-54" fill="#DBE6E3"></path>
                <path d="M39.2155041,35.6204287 C41.6389898,37.6048262 42.5695454,40.9691682 41.8559422,43.9341783 C41.8090422,44.1293241 42.1166041,44.2125571 42.1636105,44.0170997 C42.9014613,40.9512954 41.9506994,37.454882 39.4411771,35.3999286 C39.2847375,35.2719096 39.0578946,35.4913707 39.2155041,35.6204287" id="Fill-56" fill="#DBE6E3"></path>
                <path d="M41.0803587,35.4015392 C44.1177984,36.6260321 45.0542032,40.4992285 44.782481,43.394514 C44.7636571,43.5942319 45.0829175,43.592881 45.1015286,43.394514 C45.3885651,40.336607 44.3436841,36.3822557 41.165119,35.1009233 C40.9754984,35.0245484 40.8928651,35.3259956 41.0803587,35.4015392" id="Fill-58" fill="#DBE6E3"></path>
                <path d="M42.1908997,34.6114483 C44.8138965,37.0806967 44.5491933,41.1775107 43.5855632,44.3168843 C43.5265394,44.5095362 43.834314,44.5917301 43.8932314,44.3998056 C44.8901489,41.1520524 45.1235854,36.9393771 42.4164663,34.391052 C42.2685346,34.2518107 42.0426489,34.4719991 42.1908997,34.6114483" id="Fill-60" fill="#DBE6E3"></path>
                <path d="M43.7720146,35.0131908 C45.5901606,35.6273077 46.7334146,37.1555338 47.2335749,38.9204702 C47.2882384,39.1134339 47.5962257,39.0314477 47.5412432,38.8375489 C47.0098162,36.9624663 45.7816956,35.3627491 43.8567749,34.7125749 C43.6623686,34.6470068 43.5787781,34.9479344 43.7720146,35.0131908" id="Fill-62" fill="#DBE6E3"></path>
                <path d="M44.8393459,34.6509243 C47.1264919,37.4470782 46.3463141,41.106217 46.0093998,44.3767269 C45.9889808,44.576133 46.3081348,44.5746783 46.3284475,44.3767269 C46.6768475,40.9945122 47.4217173,37.3117855 45.0649125,34.430528 C44.9367617,34.2738295 44.7123649,34.4956805 44.8393459,34.6509243" id="Fill-64" fill="#DBE6E3"></path>
                <g id="Group-68" transform="translate(43.390476, 34.602522)">
                    <mask id="mask-2" fill="white">
                        <use xlink:href="#path-1"></use>
                    </mask>
                    <g id="Clip-67"></g>
                    <path d="M0.067265873,0.317917168 C2.39120873,3.33425956 4.42407381,6.79939563 3.85170238,10.714884 C3.8229881,10.9110689 4.1303373,10.9959646 4.15937063,10.7978054 C4.74567381,6.78692625 2.72971825,3.25892374 0.342816667,0.16059519 C0.220834127,0.00233800826 -0.0563119048,0.157477845 0.067265873,0.317917168" id="Fill-66" fill="#DBE6E3" mask="url(#mask-2)"></path>
                </g>
                <path d="M46.2231298,34.8176502 C47.9692775,35.2426482 49.4126489,36.4437609 50.5178298,37.7900381 C51.6325822,39.1480572 52.5052838,40.7661667 52.8414537,42.4847587 C52.8800584,42.681567 53.1876203,42.59823 53.1491219,42.4018373 C52.8024235,40.6299388 51.8929251,38.9673551 50.7433965,37.5696418 C49.6038648,36.1841901 48.1055108,34.9545016 46.3079965,34.5170343 C46.1086981,34.4686116 46.0237251,34.7691236 46.2231298,34.8176502" id="Fill-69" fill="#DBE6E3"></path>
                <path d="M45.9394433,35.438168 C48.3772862,36.3235977 49.8959529,38.4904638 50.8037497,40.7764124 C50.877237,40.9614787 51.1858624,40.8810512 51.1113116,40.6935949 C50.1590608,38.2954219 48.5778608,36.064962 46.0242037,35.1375521 C45.8314989,35.0676197 45.7483338,35.3687551 45.9394433,35.438168" id="Fill-71" fill="#DBE6E3"></path>
                <path d="M49.614723,34.0648947 C53.0997865,34.8808076 54.9421802,38.2800638 57.0388548,40.7946177 C57.1686008,40.9502771 57.393104,40.72853 57.2644214,40.5742214 C55.1260579,38.0095822 53.2534611,34.596298 49.6994833,33.7641749 C49.4999722,33.7175186 49.4148929,34.0180306 49.614723,34.0648947" id="Fill-73" fill="#DBE6E3"></path>
                <path d="M48.8767233,34.4135697 C51.5394948,36.1731027 53.8992773,38.265776 55.9443725,40.6890956 C56.0750757,40.8440276 56.2996852,40.6223844 56.1699392,40.4685954 C54.1077217,38.0250131 51.7222027,35.918104 49.037736,34.1444389 C48.8672583,34.031695 48.7074154,34.3017609 48.8767233,34.4135697" id="Fill-75" fill="#DBE6E3"></path>
                <path d="M51.1414722,33.5309352 C53.6314262,35.4485176 52.3576817,38.7229761 53.884431,41.1091993 C53.9930135,41.2788867 54.2692024,41.1227078 54.1598754,40.9518773 C53.3723595,39.720838 53.3828881,38.2554784 53.1931611,36.8622333 C53.0026897,35.46452 52.5328389,34.2083341 51.3671452,33.310435 C51.2076214,33.1876116 50.9802468,33.406761 51.1414722,33.5309352" id="Fill-77" fill="#DBE6E3"></path>
                <path d="M52.3495779,33.248722 C55.5407986,34.0341888 55.7691303,37.8601056 56.3626652,40.4486444 C56.4075446,40.6443097 56.7152129,40.5614923 56.6703335,40.365723 C56.0477652,37.65062 55.7706192,33.7693185 52.4344446,32.9481061 C52.2352525,32.8991638 52.1502795,33.1996758 52.3495779,33.248722" id="Fill-79" fill="#DBE6E3"></path>
                <path d="M53.593736,32.7126323 C56.8762043,32.0434424 59.4259265,35.8793346 59.1783456,38.7355494 C59.1610106,38.9354751 59.4801646,38.934332 59.4973932,38.7355494 C59.7642233,35.6577953 56.9915932,31.7019892 53.5089757,32.4120164 C53.3080821,32.4529575 53.3930551,32.7535734 53.593736,32.7126323" id="Fill-81" fill="#DBE6E3"></path>
                <path d="M53.7761568,31.8624597 C55.3533156,32.906874 56.2978029,34.3784684 56.9884346,36.0812658 C57.5810124,37.542469 58.0851076,39.0314165 59.0488441,40.3113981 C59.1692314,40.4713179 59.4462711,40.3160741 59.3242886,40.1540761 C58.2737711,38.7588567 57.7836076,37.1150811 57.1042489,35.5385361 C56.4117029,33.9310255 55.4282917,32.5806959 53.9371695,31.593329 C53.7667981,31.4804811 53.6069552,31.7504432 53.7761568,31.8624597" id="Fill-83" fill="#DBE6E3"></path>
                <path d="M56.5326113,30.8324788 C58.1765573,31.8858294 58.7689224,33.8156734 58.6051446,35.6566731 C58.5873843,35.8565987 58.9065383,35.8553518 58.9241922,35.6566731 C59.0981795,33.7009551 58.429243,31.6753048 56.693624,30.5632441 C56.5214446,30.452994 56.361389,30.7227482 56.5326113,30.8324788" id="Fill-85" fill="#DBE6E3"></path>
                <path d="M54.753857,31.7542879 C56.8633998,31.7672768 58.8173538,32.3865892 60.4002554,33.7757818 C60.5526538,33.9095159 60.7789649,33.6897431 60.6258221,33.5553855 C58.9802808,32.1111199 56.9492237,31.4561659 54.753857,31.4425534 C54.5484967,31.4413065 54.548284,31.7530409 54.753857,31.7542879" id="Fill-87" fill="#DBE6E3"></path>
                <path d="M25.4032946,1.6770897 C26.4838025,2.987933 27.1564613,4.65332226 27.601001,6.26395017 C28.025866,7.80360655 28.3777756,9.69074291 27.7112851,11.2158517 C27.6316295,11.3983202 27.9063295,11.5573048 27.9867295,11.3731737 C28.673001,9.80286339 28.3707565,7.92050696 27.9468486,6.32203669 C27.4922057,4.60832859 26.7744549,2.84640556 25.6289676,1.45669345 C25.5000724,1.30041059 25.2755692,1.52215768 25.4032946,1.6770897" id="Fill-89" fill="#DBE6E3"></path>
                <path d="M27.107849,10.8859431 C24.8425046,9.08578067 25.2659871,5.77318665 25.0649871,3.23577226 C25.0492475,3.0369896 24.7300935,3.03532702 24.7459395,3.23577226 C24.9535332,5.85621192 24.5421744,9.24694737 26.8822824,11.1063394 C27.040211,11.2318644 27.2672665,11.0126112 27.107849,10.8859431" id="Fill-91" fill="#DBE6E3"></path>
                <path d="M34.4431898,1.68043565 C32.4137279,3.97054072 32.0153438,8.27819105 33.995247,10.7124213 C34.122866,10.8694316 34.3473692,10.6475806 34.2208137,10.4920251 C33.2609057,9.31179853 33.0049232,7.68994817 33.0801121,6.22230245 C33.1587041,4.68742601 33.6234502,3.08043499 34.6687565,1.90083189 C34.8025438,1.74984851 34.5779343,1.52841315 34.4431898,1.68043565" id="Fill-93" fill="#DBE6E3"></path>
                <path d="M39.563734,3.15286129 C39.7558006,4.9499064 39.443453,6.77272155 38.7481419,8.44268292 C38.4033578,9.2708574 37.9577546,10.0651567 37.4152673,10.7856789 C37.323807,10.9071515 36.5654308,11.8348731 36.5060879,11.7487305 C36.4981117,11.7371963 36.5449054,11.5466227 36.5428848,11.5165923 C36.533526,11.3788057 36.4693975,11.2735433 36.3915498,11.162462 C36.2763737,10.9978662 35.9997594,11.1535256 36.1161054,11.3197839 C36.2757356,11.5477657 36.0621863,11.7796961 36.234153,11.967672 C36.4530197,12.2068762 36.7381419,12.0405139 36.9031959,11.870203 C37.6350911,11.1139353 38.2327737,10.2362989 38.7010292,9.30306996 C39.6505149,7.41053021 40.1074975,5.25551006 39.8827816,3.15286129 C39.8616181,2.95532557 39.5423578,2.95314343 39.563734,3.15286129" id="Fill-95" fill="#DBE6E3"></path>
                <path d="M43.92587,3.74750512 C43.5989525,5.54018594 43.1741938,7.34544006 42.4168811,9.01633663 C42.0320033,9.86539732 41.5573668,10.6966891 40.9112954,11.3838558 C40.6059668,11.708683 40.2636287,12.0007782 39.8767303,12.2296952 C39.7014668,12.3333988 39.4515462,12.5457939 39.3085065,12.3112657 C39.2378906,12.1956122 39.275751,12.0008821 39.1940748,11.8645503 C39.0903843,11.6915376 38.8145144,11.8483401 38.9186303,12.0219761 C39.0802811,12.2915225 38.9288398,12.799234 39.4293192,12.7830238 C39.7643192,12.772217 40.2097097,12.4027078 40.4638843,12.2109911 C41.28607,11.5908474 41.8935367,10.7309799 42.3673224,9.83765295 C43.356051,7.97337712 43.85887,5.88486032 44.2335383,3.83032257 C44.2692716,3.6341377 43.9619224,3.55007331 43.92587,3.74750512" id="Fill-97" fill="#DBE6E3"></path>
                <path d="M45.4553737,6.09667347 C45.1895006,8.66422219 44.5052498,12.2617415 41.7300673,13.3507338 C41.7901546,13.3746334 41.8502419,13.3985331 41.9102229,13.4223288 C41.6942276,13.1327275 41.7454879,12.8070689 41.5588451,12.5245336 C41.4478165,12.3566127 41.1715213,12.5126877 41.2834006,12.6819595 C41.3702879,12.8136153 41.3498689,12.9561819 41.3852832,13.1024893 C41.4299498,13.2867243 41.5202403,13.4260696 41.6347784,13.5797547 C41.6728514,13.6307752 41.7460197,13.6783667 41.814934,13.6512458 C44.7533625,12.4981401 45.4912133,8.8308962 45.7744213,6.09667347 C45.795053,5.89726735 45.475899,5.8986182 45.4553737,6.09667347" id="Fill-99" fill="#DBE6E3"></path>
                <path d="M29.5568373,11.2698233 C30.5202548,8.32393288 28.9322484,4.94265338 27.0531643,2.67374625 C26.9240563,2.51777512 26.6995532,2.73962613 26.8275976,2.89424641 C28.6374484,5.0795048 30.175896,8.35323592 29.249169,11.1869019 C29.1865294,11.3785147 29.4945167,11.4605009 29.5568373,11.2698233" id="Fill-101" fill="#DBE6E3"></path>
                <path d="M27.5650762,11.293671 C28.1218143,7.77844958 27.1260667,3.73483831 24.5560317,1.13725917 C24.4129921,0.992718308 24.1875317,1.21321847 24.3303587,1.35765542 C26.8149952,3.86888412 27.7962794,7.80910346 27.2574079,11.2108535 C27.226354,11.4071423 27.5337032,11.4916223 27.5650762,11.293671" id="Fill-103" fill="#DBE6E3"></path>
                <path d="M26.0173017,10.9909665 C23.1902208,12.4716011 23.9626351,6.87025287 24.8055589,5.66716577 C24.9217986,5.50121914 24.6455033,5.34504019 24.5301144,5.50984379 C23.5100129,6.96574752 22.9031843,12.975364 26.1783144,11.2602011 C26.3594271,11.1654338 26.1984144,10.8961992 26.0173017,10.9909665" id="Fill-105" fill="#DBE6E3"></path>
                <path d="M23.7799697,11.619714 C20.5832189,12.3390932 20.199511,7.39114033 20.2087633,5.35904745 C20.2097205,5.15839439 19.8906729,5.15818657 19.8897157,5.35904745 C19.8792935,7.62940935 20.3790284,12.7046538 23.86473,11.9204338 C24.0647729,11.8753363 23.9801189,11.5747204 23.7799697,11.619714" id="Fill-107" fill="#DBE6E3"></path>
                <path d="M21.3954184,13.2904132 C21.98672,11.8273395 21.4774137,10.2447677 20.6896851,8.95158939 C19.8879184,7.63523878 18.7600851,6.44264674 17.4380581,5.61280968 C17.2648152,5.50401436 17.1046533,5.77376856 17.2770454,5.8819404 C18.5112279,6.65670439 19.568339,7.76772591 20.336393,8.98359412 C21.1284819,10.23739 21.669374,11.7682139 21.0877502,13.2074918 C21.0123486,13.3941168 21.3207613,13.4750639 21.3954184,13.2904132" id="Fill-109" fill="#DBE6E3"></path>
                <path d="M19.5599587,13.6180876 C21.6204746,11.2475551 19.097446,8.04001555 17.1649746,6.47167961 C17.0082159,6.34428414 16.7812667,6.56364127 16.9394079,6.69207585 C18.7094841,8.12875595 21.2591,11.1833378 19.3343921,13.3975875 C19.2022,13.5497139 19.4268095,13.7712531 19.5599587,13.6180876" id="Fill-111" fill="#DBE6E3"></path>
                <path d="M19.5111444,13.1436798 C17.2358032,12.6462555 15.9804571,10.022075 15.747127,7.95236622 C15.7249,7.75514223 15.4056397,7.75296009 15.4280794,7.95236622 C15.6764048,10.1552896 17.0016222,12.9142432 19.4263841,13.4442957 C19.6263206,13.4879385 19.7118254,13.1875304 19.5111444,13.1436798" id="Fill-113" fill="#DBE6E3"></path>
                <path d="M19.3388481,13.9558934 C20.2706798,11.3905269 17.9981037,8.71231243 15.9302497,7.41113289 C15.7571132,7.30223366 15.5969513,7.57188395 15.769237,7.68026362 C17.7219148,8.90912077 19.9126021,11.4464312 19.0311798,13.873076 C18.9623719,14.0624027 19.2705719,14.1440771 19.3388481,13.9558934" id="Fill-115" fill="#DBE6E3"></path>
                <path d="M16.5607835,15.1997866 C17.2271676,12.5743592 15.0149978,10.61064 13.1412311,9.10714487 C12.9837279,8.98078851 12.7567787,9.20014564 12.9156644,9.32754112 C14.6860597,10.7481149 16.8871692,12.6186255 16.2531152,15.1169691 C16.2037692,15.3116992 16.5113311,15.3947245 16.5607835,15.1997866" id="Fill-117" fill="#DBE6E3"></path>
                <path d="M17.2669103,14.4666288 C15.0015659,15.4491118 13.3819738,13.1111035 12.7472817,11.2936918 C12.6813452,11.1048846 12.3730389,11.1860395 12.4396135,11.3766131 C13.1521532,13.4167072 14.946796,15.8118668 17.427923,14.7357595 C17.615204,14.6546046 17.4530214,14.3858895 17.2669103,14.4666288" id="Fill-119" fill="#DBE6E3"></path>
                <path d="M33.97838,12.0414492 C36.1101498,11.9830509 36.7669625,9.94015124 36.7988673,8.16659012 C36.8326863,6.28049288 36.4278149,3.98737438 35.2856244,2.4169602 C35.1676832,2.25475439 34.8908562,2.41030987 35.01018,2.57438609 C36.0474038,4.00046722 36.4316435,6.03432659 36.4775863,7.74730731 C36.5224657,9.41986646 36.100153,11.6714204 33.97838,11.7297147 C33.7734451,11.7353259 33.7725943,12.0470604 33.97838,12.0414492" id="Fill-121" fill="#DBE6E3"></path>
                <path d="M45.914781,5.92498054 C45.772273,7.30378195 45.5144825,8.68216771 45.225,10.0373812 C45.0315508,10.9429697 44.8134286,11.847727 44.5146937,12.7261946 C44.3218825,13.2936552 44.0886587,14.099177 43.585627,14.4920663 C42.9800746,14.9650713 42.5267079,13.8688052 42.3480413,13.4645896 C42.2668968,13.2808741 41.9918778,13.439443 42.0725968,13.6219116 C42.2821048,14.0960596 42.6663444,14.9779564 43.3332603,14.9318197 C43.9060571,14.8921255 44.2448857,14.1966459 44.4482254,13.7593864 C45.2791317,11.9731481 45.6110476,9.92713113 45.9325413,8.00445704 C46.0478238,7.31448483 46.1619365,6.62087571 46.2338286,5.92498054 C46.2544603,5.72557441 45.9352,5.72702917 45.914781,5.92498054" id="Fill-123" fill="#DBE6E3"></path>
                <path d="M52.4472597,9.1045263 C51.7631152,11.5256637 48.7677898,17.4266927 45.4446962,15.0085687 C45.2799613,14.8886548 45.1207565,15.1592403 45.2836835,15.2778033 C48.8306422,17.8586527 52.0186724,11.793028 52.7549279,9.18744766 C52.8095914,8.99386058 52.5019232,8.91114704 52.4472597,9.1045263" id="Fill-125" fill="#DBE6E3"></path>
                <path d="M53.628374,12.8511274 C52.5409533,14.8900784 50.8246898,17.8327476 48.03632,17.406191 C47.8354263,17.3754332 47.7489644,17.6758412 47.9515597,17.7068069 C50.9184898,18.1606922 52.732701,15.2044106 53.9038184,13.0085533 C53.9985756,12.8308647 53.7234502,12.6730231 53.628374,12.8511274" id="Fill-127" fill="#DBE6E3"></path>
                <path d="M57.0800438,14.2023819 C54.8079994,15.8457419 52.6779311,17.8365819 49.7019613,17.997333 C49.4977708,18.0082437 49.4963883,18.320082 49.7019613,18.3090674 C52.7483343,18.1445755 54.9120089,16.1562294 57.2410565,14.4716165 C57.4043025,14.3535731 57.2453105,14.0828837 57.0800438,14.2023819" id="Fill-129" fill="#DBE6E3"></path>
                <path d="M52.7121968,10.8578351 C52.3110476,12.1725231 51.4862032,13.3744672 50.5084286,14.3474942 C49.5253365,15.3258208 48.2426587,16.1973264 46.788546,16.2044963 C46.5832921,16.2055354 46.5828667,16.5172698 46.788546,16.5162307 C48.275627,16.508853 49.5989302,15.6633253 50.6254127,14.6742958 C51.6934778,13.6452605 52.5889381,12.3529134 53.0198651,10.9407564 C53.0786762,10.7480006 52.7707952,10.6657027 52.7121968,10.8578351" id="Fill-131" fill="#DBE6E3"></path>
                <path d="M59.2147063,16.6293799 C58.3182889,17.9063481 56.8467349,18.8685684 55.4566444,19.5623853 C54.3813476,20.0989842 52.4246286,20.9634238 51.3168952,20.0483793 C50.5720254,19.4332233 50.6802889,18.2591275 50.8177984,17.4234714 C50.8501286,17.2271827 50.542673,17.1427026 50.5101302,17.3405501 C50.260954,18.8554755 50.5047063,20.6570927 52.4208,20.724843 C54.2117206,20.7881251 56.0772984,19.7126413 57.4649429,18.7120777 C58.2207667,18.1671659 58.955427,17.5485809 59.4901508,16.7868058 C59.6066032,16.6208592 59.3302016,16.4647841 59.2147063,16.6293799" id="Fill-133" fill="#DBE6E3"></path>
                <path d="M58.5858103,18.694527 C57.404696,19.969313 55.5645357,20.8887218 53.8513563,21.2234207 C53.1074437,21.3686889 52.1851833,21.4276067 51.544004,20.9521078 C50.729369,20.3478626 50.7999849,19.1750137 50.9502563,18.3000791 C50.9840754,18.1037903 50.6766198,18.0195181 50.6426944,18.2171577 C50.4037278,19.6080128 50.5914341,21.2707004 52.2720706,21.5796292 C53.7974373,21.8598785 55.4837103,21.1566056 56.7798944,20.4347326 C57.5179579,20.0235548 58.2384738,19.5331966 58.811377,18.9149233 C58.9488865,18.7664338 58.7239579,18.5453101 58.5858103,18.694527" id="Fill-135" fill="#DBE6E3"></path>
                <path d="M62.7665571,18.8816508 C61.4068825,20.0549153 59.5715079,20.7806331 57.8419508,21.2400257 C56.1001635,21.7026396 53.8860794,22.0333899 52.2437286,21.0875876 C51.3162571,20.5535865 50.8433222,19.6396851 50.6881587,18.6239504 C50.6579556,18.4261029 50.3505,18.5102712 50.3804905,18.7067678 C51.0950508,23.3846547 57.2922317,22.0319351 60.3304159,20.6951139 C61.2770302,20.2786367 62.2104571,19.7766404 62.9922302,19.102151 C63.1463302,18.9690404 62.920019,18.7492676 62.7665571,18.8816508" id="Fill-137" fill="#DBE6E3"></path>
                <path d="M63.8499897,24.544816 C60.0448151,24.6159954 52.7475579,25.0063908 52.5776119,19.7107501 C52.5711246,19.5107205 52.252077,19.5098892 52.2585643,19.7107501 C52.3969246,24.0229726 57.2219881,24.7826694 60.7425722,24.8743193 C61.7785198,24.9013363 62.8142548,24.8759819 63.8499897,24.8565504 C64.055031,24.8527057 64.0557754,24.5409713 63.8499897,24.544816" id="Fill-139" fill="#DBE6E3"></path>
                <path d="M62.1694808,22.8999908 C60.422376,23.700317 58.4832046,24.256763 56.5431824,24.2835721 C54.8828586,24.3066405 53.0486538,23.8643932 52.1981792,22.3340889 C51.6325078,21.3164838 51.6246379,20.1052916 51.7668268,18.9847102 C51.7919252,18.7861354 51.4726649,18.7880058 51.4477792,18.9847102 C51.2099824,20.858442 51.5546602,22.9106937 53.3689776,23.9208172 C55.0180284,24.838979 57.1282094,24.6921521 58.9141316,24.3136026 C60.0938633,24.0635915 61.2381808,23.6695592 62.3304935,23.1692255 C62.5162856,23.084018 62.3544221,22.815303 62.1694808,22.8999908" id="Fill-141" fill="#DBE6E3"></path>
                <path d="M61.9261006,20.9328842 C60.3864832,21.602178 58.7526403,22.1213198 57.0893387,22.3951265 C55.5190927,22.6536583 53.4877165,22.7811576 52.2000403,21.6754356 C51.3887022,20.9788131 51.1327197,19.9386592 51.1100673,18.9214697 C51.1056006,18.7211284 50.786553,18.720401 50.7910197,18.9214697 C50.8316451,20.7456357 51.728807,22.2386358 53.6073594,22.6951189 C55.4516673,23.1431852 57.4884673,22.727955 59.2722625,22.214944 C60.2320641,21.9388512 61.1730419,21.5994763 62.0871133,21.2020149 C62.2743943,21.1206522 62.1122117,20.8519371 61.9261006,20.9328842" id="Fill-143" fill="#DBE6E3"></path>
                <path d="M66.6828879,26.3588091 C65.0866927,27.2659563 63.1093419,27.5684426 61.2853467,27.524488 C59.5419641,27.4824039 57.4740038,27.0883716 56.3036308,25.702712 C55.6108721,24.8823309 55.4460308,23.8390596 55.5803498,22.8080499 C55.6060863,22.609579 55.286826,22.6114494 55.2613022,22.8080499 C54.6602165,27.4241095 60.3292673,28.2462572 63.806461,27.6482466 C64.8616578,27.4667132 65.9137705,27.1567453 66.8439006,26.6280437 C67.0212911,26.5271457 66.8609165,26.2575993 66.6828879,26.3588091" id="Fill-145" fill="#DBE6E3"></path>
                <path d="M64.3778965,25.4692645 C62.9393108,25.9400874 61.3637473,26.1113335 59.854014,26.1486377 C58.2912124,26.1872928 56.3060981,26.1302454 55.0341616,25.1066134 C54.3378933,24.5462188 54.1290235,23.7451652 54.2452632,22.8952732 C54.2723822,22.6970101 53.9530156,22.6989845 53.9262156,22.8952732 C53.3807505,26.8837075 59.4229806,26.6269422 61.9699378,26.2916199 C62.8099902,26.1810581 63.6571679,26.0335038 64.4626568,25.7698804 C64.6564251,25.7064944 64.5733663,25.4053589 64.3778965,25.4692645" id="Fill-147" fill="#DBE6E3"></path>
                <path d="M66.5777298,29.5882843 C62.8370029,31.945724 56.499441,29.4995439 56.4804044,24.8384906 C56.4795537,24.6379415 56.160506,24.6375258 56.1613568,24.8384906 C56.1814568,29.7286687 62.79106,32.3454715 66.7387425,29.857415 C66.9107092,29.7490353 66.7509727,29.4790733 66.5777298,29.5882843" id="Fill-149" fill="#DBE6E3"></path>
                <path d="M66.1586714,27.1721346 C64.7540111,27.9908531 62.9875508,28.3472695 61.3735952,28.4549218 C60.0259381,28.5448052 57.912673,28.534518 57.1357921,27.2081919 C56.6163825,26.3213074 56.9949857,25.2123641 57.3990063,24.3599783 C57.4847238,24.1790684 57.2098111,24.0206034 57.1234556,24.2026563 C56.4013444,25.7263103 56.2362905,27.5587892 58.0496508,28.3529846 C59.7263524,29.0872231 61.8441905,28.8346143 63.575981,28.4413094 C64.5215317,28.2264205 65.481546,27.9298571 66.3196841,27.4413692 C66.4957984,27.3387047 66.3356365,27.0690544 66.1586714,27.1721346" id="Fill-151" fill="#DBE6E3"></path>
                <path d="M64.1883503,32.1363496 C62.2776805,32.1355183 60.2823567,31.6392371 58.8136741,30.3926111 C57.2469376,29.0626481 56.7478408,27.1113983 57.1097471,25.1572391 C57.1461186,24.9610542 56.838663,24.8768859 56.8020789,25.0743177 C56.4283678,27.0920708 56.9071519,29.121462 58.4949456,30.5320603 C60.0292456,31.8950672 62.1527202,32.4472528 64.1883503,32.448084 C64.3936043,32.448188 64.3940297,32.1364535 64.1883503,32.1363496" id="Fill-153" fill="#DBE6E3"></path>
                <path d="M65.8335938,35.9679815 C64.6271684,35.7697184 63.4699827,35.3365114 62.5749478,34.498881 C61.799343,33.7731632 61.2888668,32.831933 60.9238763,31.8550612 C60.1866637,29.8818862 59.9754541,27.7611568 59.2230335,25.7926578 C58.8377303,24.7848203 58.2997097,23.8359007 57.482097,23.1016622 C57.3310811,22.9660577 57.1048763,23.1859344 57.2565303,23.3221624 C58.889416,24.7884572 59.3315097,27.0532079 59.8096557,29.073351 C60.2732319,31.0318745 60.7653097,33.1813873 62.2772763,34.6505917 C63.2193176,35.5660519 64.4540319,36.0557867 65.7488335,36.2687013 C65.9496208,36.3016412 66.0359763,36.0012331 65.8335938,35.9679815" id="Fill-155" fill="#DBE6E3"></path>
                <path d="M65.5429095,29.2531074 C63.255019,29.6883926 60.6641397,29.6768584 58.5821413,28.5278053 C56.3632714,27.3031046 55.5994714,24.996062 55.8207841,22.6152422 C55.8393952,22.4155243 55.5202413,22.4167713 55.5017365,22.6152422 C55.2744683,25.0595519 56.0742143,27.4479572 58.3215857,28.7408238 C60.4931302,29.9901515 63.2207746,30.0117651 65.6277762,29.5537233 C65.8290952,29.51538 65.7438032,29.214868 65.5429095,29.2531074" id="Fill-157" fill="#DBE6E3"></path>
                <path d="M57.158604,15.3173001 C56.0539548,16.3456081 54.8142421,17.2876695 53.4652024,17.9891759 C52.1454087,18.6753034 50.2495214,19.2736257 49.445096,17.6044956 C49.357677,17.4231701 49.0825516,17.5811155 49.1695452,17.7617137 C50.7988151,21.1426815 55.8071183,17.0057577 57.384277,15.5378002 C57.5331659,15.3990784 57.3072802,15.17889 57.158604,15.3173001" id="Fill-159" fill="#DBE6E3"></path>
                <path d="M49.5036519,5.40714808 C49.2864868,9.44369337 46.4838662,13.9745456 41.92659,14.0080051 C41.721336,14.0093559 41.7209106,14.3210903 41.92659,14.3197395 C46.665617,14.2850331 49.5962821,9.61566686 49.8226995,5.40714808 C49.8335471,5.20670284 49.5143932,5.20722239 49.5036519,5.40714808" id="Fill-161" fill="#DBE6E3"></path>
                <path d="M30.2403224,3.84208535 C31.8907557,6.09977004 31.1600303,9.9269337 28.0903668,10.5236973 C27.8891541,10.562768 27.9743398,10.86328 28.1752335,10.8242093 C31.4353684,10.1905571 32.2828652,6.10195218 30.5157668,3.68476337 C30.3975065,3.5229732 30.1206795,3.67842477 30.2403224,3.84208535" id="Fill-163" fill="#DBE6E3"></path>
                <path d="M31.4894044,2.69591057 C33.4793044,5.13512861 32.5434314,10.9079308 28.7463394,11.0091406 C28.5414044,11.0146479 28.5405537,11.3263823 28.7463394,11.320875 C32.8514187,11.2114562 33.8744981,5.12255532 31.7149711,2.47551432 C31.587033,2.31860799 31.3626362,2.540459 31.4894044,2.69591057" id="Fill-165" fill="#DBE6E3"></path>
                <path d="M37.242184,2.06513672 C37.4412697,3.79734106 37.5722919,5.56019929 37.3573602,7.29728748 C37.13743,9.07594025 36.4883808,10.9459312 34.7734998,11.8353096 C34.5920681,11.9295573 34.7530808,12.198688 34.9345125,12.1045442 C36.6095125,11.2357403 37.3433221,9.47038822 37.617384,7.72166196 C37.9108014,5.84928103 37.7764824,3.93814112 37.5612316,2.06513672 C37.5385792,1.86801665 37.2193189,1.86573059 37.242184,2.06513672" id="Fill-167" fill="#DBE6E3"></path>
                <path d="M23.9607846,11.6565506 C23.2779163,12.039984 22.6097243,12.052869 22.2452656,11.292237 C21.8767656,10.523396 21.8699592,9.57925628 21.884529,8.74889966 C21.9019703,7.7543629 22.0170402,6.75920267 22.2028322,5.7818113 C22.330664,5.10908839 22.4559433,4.355938 22.7893481,3.74493851 C22.8859132,3.56797726 22.6105751,3.41034355 22.5139037,3.58761653 C22.2382465,4.09273022 22.1103084,4.68554521 21.9887513,5.24012077 C21.8048735,6.0796216 21.6814021,6.93429351 21.6134449,7.79000453 C21.5471894,8.62243939 21.5288973,9.46890229 21.6489656,10.2975963 C21.732556,10.8744089 21.8821894,11.5538861 22.3425751,11.9652716 C22.8681529,12.4349515 23.5688878,12.2362728 24.1217973,11.9257853 C24.2998259,11.8258224 24.1392386,11.55638 23.9607846,11.6565506" id="Fill-169" fill="#DBE6E3"></path>
                <path d="M41.2774238,3.70802915 C40.9802841,5.31512407 40.4932048,6.90361884 39.8176746,8.39776199 C39.1675619,9.83568903 38.3094302,11.3639151 36.9409286,12.2603595 C36.7711952,12.3715447 36.930719,12.6417146 37.1019413,12.5295941 C38.4783127,11.6279542 39.3631381,10.1349541 40.0311175,8.69079236 C40.7521651,7.13180845 41.2738079,5.47421255 41.5850921,3.79095051 C41.6213571,3.59476564 41.3139016,3.51070125 41.2774238,3.70802915" id="Fill-171" fill="#DBE6E3"></path>
                <path d="M51.7790995,4.76277222 C51.7531503,5.56351407 51.4560106,6.3713219 51.179609,7.11647111 C50.7673995,8.22770046 50.2579868,9.30609379 49.6823186,10.3451047 C49.093463,11.4078073 48.4313329,12.4473378 47.6326503,13.3729812 C47.029544,14.0720977 46.2944583,14.8228581 45.3828329,15.1194214 C44.3131725,15.467421 43.4983249,14.8156882 42.9614741,13.9557168 C42.8548059,13.7845746 42.5787233,13.9410653 42.6860297,14.1129349 C45.7414424,19.0085163 50.3327503,10.0600755 51.253309,7.79989691 C51.6404202,6.84921079 52.0645408,5.79939313 52.0981471,4.76277222 C52.1047408,4.56201524 51.7856932,4.56222307 51.7790995,4.76277222" id="Fill-173" fill="#DBE6E3"></path>
                <path d="M16.8796822,13.2756058 C16.795241,14.011299 16.5435124,14.8078844 15.8623457,15.2187504 C15.3458076,15.530277 14.7083505,15.527991 14.1412965,15.363603 C12.7572679,14.9622969 11.7136632,13.6879265 11.5504171,12.2990457 C11.5273394,12.1020295 11.2079727,12.0997435 11.2313695,12.2990457 C11.4169489,13.8776689 12.6149727,15.3402229 14.2304171,15.7094204 C14.8894632,15.8599882 15.6046616,15.7949396 16.1620378,15.3960234 C16.8527759,14.9018204 17.1073759,14.0709442 17.1987298,13.2756058 C17.2215949,13.0766153 16.9023346,13.0782779 16.8796822,13.2756058" id="Fill-175" fill="#DBE6E3"></path>
                <path d="M18.6128446,13.9759899 C17.5372287,15.1022864 16.0810954,14.2542649 15.163089,13.3764207 C14.218389,12.4732221 13.2806017,11.1769264 13.1230986,9.85901715 C13.0995954,9.6621049 12.7803351,9.65981885 12.804051,9.85901715 C12.9845256,11.3695783 14.0599287,12.8566555 15.2027573,13.8376837 C16.2430652,14.7309068 17.7411002,15.3455432 18.8384113,14.1963862 C18.9784732,14.049871 18.7532256,13.8288513 18.6128446,13.9759899" id="Fill-177" fill="#DBE6E3"></path>
                <path d="M23.7202546,11.8493584 C23.3266562,12.0316191 23.225199,12.335768 22.8927514,11.8299269 C22.7017483,11.5392865 22.5642387,11.219447 22.4757562,10.8853716 C22.2716721,10.1147641 22.3308022,9.29542208 22.4950054,8.52356762 C22.8125641,7.03202226 23.5052165,5.63326985 24.2784816,4.32055614 C24.3811086,4.14629659 24.1055578,3.98907852 24.0030371,4.16313025 C23.0703546,5.74642945 22.2081816,7.50294908 22.0500403,9.34800129 C21.9796371,10.1681746 22.0802435,11.0178587 22.4779895,11.753552 C22.6001848,11.9796634 22.8311752,12.428561 23.1008768,12.5043124 C23.4300276,12.5966897 23.6351752,12.2325839 23.8812673,12.118593 C24.0667403,12.0327622 23.9049832,11.7638392 23.7202546,11.8493584" id="Fill-179" fill="#DBE6E3"></path>
                <path d="M57.8680489,7.94151786 C57.9724838,13.0250752 51.2094187,17.7872343 46.5824838,14.6864119 C46.4127505,14.5726289 46.253014,14.8426948 46.4214711,14.9555426 C50.2762044,17.5388859 55.3782013,14.8808303 57.3435346,11.2364469 C57.8919775,10.2195692 58.2108124,9.09493527 58.1870965,7.94151786 C58.1829489,7.74117653 57.8639013,7.74044915 57.8680489,7.94151786" id="Fill-181" fill="#DBE6E3"></path>
                <path d="M23.7122997,10.1014322 C20.7515378,10.5153117 17.8869156,11.5328129 15.1706505,12.7285222 C12.1484187,14.058797 9.23764095,15.6781535 6.56689333,17.599165 C5.27102825,18.5314587 4.02897587,19.5399196 2.90635365,20.6681905 C2.76320762,20.8121079 2.98856159,21.0327119 3.13202667,20.8886906 C5.24890762,18.7609992 7.77225524,17.0273401 10.3757902,15.5172985 C13.1566092,13.9044884 16.1032267,12.5242323 19.1711886,11.5181613 C20.6784759,11.0239583 22.2217092,10.6222366 23.79706,10.4020481 C23.9995489,10.3737842 23.913406,10.0732722 23.7122997,10.1014322" id="Fill-183" fill="#DBE6E3"></path>
                <g id="Group-187" transform="translate(30.628571, 0.000000)">
                    <mask id="mask-4" fill="white">
                        <use xlink:href="#path-3"></use>
                    </mask>
                    <g id="Clip-186"></g>
                    <path d="M5.03524143,0.185139081 C5.12180968,1.77841378 5.09298905,3.38893778 4.88762873,4.97286045 C4.67865254,6.58431965 4.30621762,8.64665076 2.95217952,9.74946328 C2.16838587,10.3879993 1.1802954,10.4127302 0.238254127,10.1352866 C0.0412953968,10.077304 -0.0429331746,10.3780238 0.15349381,10.4359025 C4.54731127,11.7300161 5.2605954,5.80976349 5.37492079,2.90803546 C5.41065413,2.00078434 5.40352873,1.09166282 5.35428905,0.185139081 C5.34344143,-0.0143709575 5.02428746,-0.0157218067 5.03524143,0.185139081" id="Fill-185" fill="#DBE6E3" mask="url(#mask-4)"></path>
                </g>
                <path d="M32.0590002,0.958230089 C32.305624,1.53015887 32.4091017,2.16827925 32.5073684,2.77730443 C32.6577462,3.71011777 32.7458033,4.65363399 32.7931287,5.59663066 C32.8393906,6.52154673 32.8473668,7.45217793 32.7698383,8.37574315 C32.7142176,9.03828273 32.6539176,9.84255758 32.2878637,10.4253971 C31.88597,11.0652839 31.318597,10.591032 30.9372287,10.175386 C30.7999319,10.0256496 30.5747906,10.2467732 30.7116621,10.3957823 C31.0516605,10.7664345 31.5997843,11.2695739 32.1510986,10.9968063 C32.6700827,10.740041 32.8356684,10.0012304 32.9370192,9.49985752 C33.337424,7.52034386 33.1738589,5.37103884 32.9147922,3.38414746 C32.806316,2.55223217 32.7029446,1.65526829 32.3666684,0.875308729 C32.2881827,0.69335973 31.9792383,0.773371569 32.0590002,0.958230089" id="Fill-188" fill="#DBE6E3"></path>
                <path d="M45.4502455,15.7184059 C45.7987975,15.7184059 45.7995199,15.2012102 45.4502455,15.2012102 C45.101513,15.2012102 45.1009712,15.7184059 45.4502455,15.7184059" id="Fill-190" fill="#DBE6E3"></path>
                <path d="M6.25477968,20.563614 C6.76376698,21.0463867 7.06239556,21.7099654 7.40824317,22.3049625 C7.78184794,22.9479667 8.19756698,23.5618758 8.77642571,24.0463111 C8.93158921,24.1762004 9.15832571,23.9566355 9.00209873,23.8259148 C7.85448444,22.865461 7.5394781,21.3475222 6.48034635,20.3432177 C6.33294635,20.2033529 6.10706063,20.4235413 6.25477968,20.563614" id="Fill-192" fill="#DBE6E3"></path>
                <path d="M9.94818127,18.4383956 C9.72484794,20.8694047 10.4897114,23.6923678 12.6842273,25.0922632 C12.8566194,25.2023055 13.0166749,24.9325513 12.84524,24.8231325 C10.7452686,23.4835057 10.0545305,20.7533355 10.2672289,18.4383956 C10.285521,18.2385739 9.96636698,18.2398208 9.94818127,18.4383956" id="Fill-194" fill="#DBE6E3"></path>
            </g>
            <path d="M39.3740492,15.9682291 C37.9562427,15.3627699 37.1758056,15.3881103 36.6057873,16.2658489 C37.6218463,16.156666 38.4521532,16.0672966 39.3740492,15.9682291 M33.0869031,12.8158995 C33.1720573,13.1139364 33.174524,13.5163593 33.3824761,13.727321 C33.5535352,13.9007414 34.0497675,13.980204 34.2555747,13.8614272 C34.5432114,13.6955151 34.694537,13.3064403 34.9192196,12.9916141 C34.1591595,12.9187212 33.7176233,12.8763829 33.0869031,12.8158995 M28.0413567,18.3906915 C28.1901084,18.4001811 28.3397181,18.4239573 28.48729,18.4153019 C28.6297142,18.4069594 28.7699934,18.3650382 28.911345,18.3380292 C28.8234024,18.4715097 28.7230191,18.5992547 28.6528795,18.741182 C28.618346,18.8109464 28.6397954,18.9067813 28.634862,19.0133571 C28.910916,18.9858268 29.1465379,18.9623634 29.3927772,18.9378572 C29.3201709,19.2170191 29.2660112,19.4248524 29.2119586,19.6328943 C29.2949679,19.6978618 29.3777626,19.7628292 29.4606646,19.8277967 C29.8525455,19.4873171 30.2444263,19.1469419 30.8084388,18.6570268 C30.5016048,19.2638416 30.2808903,19.7002602 30.0601758,20.1368874 C30.1343908,20.18152 30.2086058,20.2263611 30.2827135,20.2710979 C30.5667038,19.9479291 30.8506941,19.6247603 31.2171574,19.2077381 C31.1428352,19.6992174 31.0909276,20.0428254 31.03902,20.3863291 C31.0948957,20.4010328 31.1507715,20.415528 31.2066472,20.4302317 C31.4422691,20.140433 31.6781054,19.8505301 31.9605942,19.5031679 C31.9483681,19.9274899 31.9382868,20.2772505 31.9282056,20.6271154 C32.0044583,20.6424448 32.080711,20.6577742 32.1569636,20.6731036 C32.3219097,20.3256372 32.4869629,19.9781708 32.6973817,19.5349738 C32.7711677,19.9636756 32.8253275,20.2786062 32.8794873,20.5935367 C32.9443718,20.6024007 33.0092563,20.6113689 33.0741407,20.6203371 C33.2453071,20.2296981 33.4164734,19.8390591 33.6474837,19.3117069 C33.7609511,19.7979721 33.8318414,20.1021617 33.9027317,20.4062469 C33.9627901,20.3990515 34.0228485,20.391856 34.0830141,20.3846606 C34.0865533,20.0330229 34.0900924,19.6813853 34.0965272,19.0475615 C34.4104395,19.6266374 34.5881479,19.9543946 34.7658563,20.2821518 C34.8193726,20.2600441 34.8728889,20.2380406 34.9264052,20.2160372 C34.9126776,19.9825506 34.8990572,19.7491683 34.8792165,19.410983 C35.1768271,19.5653198 35.3786662,19.6700186 35.57954,19.7741959 C35.6936509,19.2396483 35.7958573,18.760057 35.9169393,18.1929735 C36.350003,18.5842382 36.7055271,18.9055299 37.0610512,19.2267173 C37.1242198,19.1639398 37.1874956,19.1011622 37.2507713,19.0383847 C37.0078567,18.7000951 36.7647275,18.3619097 36.3919367,17.8429 C37.0154712,18.1785826 37.4340566,18.4038309 37.8525347,18.6292878 C37.9037989,18.5626519 37.9549557,18.4959116 38.0062198,18.4293799 C37.7830386,18.1299874 37.5597502,17.8306991 37.2895948,17.4686332 C37.7910822,17.6227615 38.1784586,17.7419554 38.5658351,17.861045 C38.6121659,17.738827 38.6584966,17.6164003 38.7049346,17.494078 C38.1136814,17.1875942 37.3981288,16.5081994 36.9556273,16.6477282 C35.8192372,17.0060399 34.8040363,17.7276688 33.8131804,18.264615 C33.2325447,18.0376981 32.5845578,17.6991999 31.8928141,17.5314108 C30.3386965,17.154537 29.9501403,15.7879261 29.3743307,14.6677328 C29.1945846,14.3181808 29.7605275,13.5724628 30.0470917,13.0395836 C30.3371951,12.5001347 30.5910489,11.9219973 31.4503126,12.0117838 C32.6254189,12.134419 33.8141457,12.1281621 34.9936491,12.2182615 C36.1570655,12.3071094 36.9171256,13.16785 36.9341779,14.2866877 C36.941578,14.767426 36.84956,15.4065682 37.6832988,15.3142789 C38.2769115,15.2486858 38.8614081,15.1060285 39.6922513,14.9532559 C39.0923111,14.7138253 38.7312101,14.5697081 38.2435576,14.3751185 C38.6895983,14.2428894 38.9789509,14.1571699 39.4899833,14.005753 C38.8631241,13.8953187 38.4803592,13.8279528 37.8455637,13.7160586 C38.4940868,13.4891418 38.8761009,13.3553484 39.4969543,13.1381298 C38.8857532,12.9967239 38.5201479,12.9120472 38.1544353,12.8274748 C38.2031255,12.7165191 38.2518157,12.6055635 38.3005058,12.4946078 C38.7959874,12.7357069 39.6472075,12.8993248 39.7236747,13.2315661 C40.0137781,14.4931653 40.2362085,15.8018999 39.5259111,17.0655847 C38.2778767,19.2856365 36.350003,20.4381571 33.8206877,20.8721773 C31.416208,21.2848197 29.4347108,20.7234716 27.9503039,18.8213746 C27.2442963,17.91694 26.3674441,16.9915448 26.1009351,15.9470599 C25.7667532,14.637804 26.3173597,13.2785971 26.9478653,12 C27.3779262,12.3373511 27.7212241,12.6066063 28.13005,12.9273766 C27.6870123,12.919764 27.3369578,12.9137157 26.9869033,12.9076674 C26.9709235,12.9738862 26.9549437,13.0400007 26.9389638,13.1062196 C27.1722263,13.2712974 27.4054887,13.436271 27.7178994,13.6572437 C27.2970619,13.7429633 26.9858308,13.8064708 26.6745998,13.8699783 C26.6662345,13.941724 26.6578692,14.0136784 26.6495039,14.0855284 C27.182522,14.2681256 27.7156472,14.4507227 28.2487725,14.6333199 L28.2000823,14.8212354 C27.634354,14.8491828 27.0685183,14.8769218 26.5027899,14.9048692 L26.4773724,15.074744 C26.6958347,15.181007 26.9144043,15.2873743 27.2205947,15.4363927 C26.9016419,15.6661252 26.685968,15.8214005 26.3373077,16.0724064 C26.7716584,16.0608312 27.0502863,16.0533229 27.328807,16.0471703 C26.9758568,16.8747493 27.3980886,17.6345453 28.1270471,17.5463231 C28.0989483,17.8233994 28.0702061,18.1071497 28.0413567,18.3906915" id="Fill-197" fill="#000000"></path>
        </g>
    </g>
</svg>