<?xml version="1.0" encoding="UTF-8"?>
<svg width="80px" height="50px" viewBox="0 0 80 50" version="1.1" xmlns="http://www.w3.org/2000/svg" xmlns:xlink="http://www.w3.org/1999/xlink">
    <!-- Generator: Sketch 48.2 (47327) - http://www.bohemiancoding.com/sketch -->
    <title>creative_background3@1x</title>
    <desc>Created with Sketch.</desc>
    <defs>
        <polygon id="path-1" points="0.447276438 0.673899022 7.43372087 0.673899022 7.43372087 14.9556486 0.447276438 14.9556486"></polygon>
        <polygon id="path-3" points="0 0.28448048 13.7903588 0.28448048 13.7903588 6.4714902 0 6.4714902"></polygon>
        <polygon id="path-5" points="0.555102977 0.174065108 63.6447655 0.174065108 63.6447655 23.8841492 0.555102977 23.8841492"></polygon>
    </defs>
    <g id="creative-1280" stroke="none" stroke-width="1" fill="none" fill-rule="evenodd" transform="translate(-38.000000, -676.000000)">
        <g id="creative_background3" transform="translate(76.302100, 700.104787) rotate(-31.000000) translate(-76.302100, -700.104787) translate(35.760446, 677.677086)">
            <path d="M76.5206821,35.2492976 C66.1690466,32.9285645 56.2104398,37.391677 45.8497949,37.3243939 C35.7639324,37.2592468 23.8052707,34.6234579 18.8321612,25.3597493 C18.6688685,25.0532374 18.1823686,25.3234378 18.3467875,25.6288818 C22.5743811,33.5042088 31.7390471,36.5885517 40.4712689,37.5497389 C46.0446201,38.1638308 51.6528822,37.8188713 57.1406455,36.7647694 C63.5710022,35.5280419 69.8527063,34.3030622 76.3709032,35.7640667 C76.7245166,35.8441657 76.8731693,35.3283285 76.5206821,35.2492976" id="Fill-1" fill="#9F6CAD"></path>
            <path d="M71.5771905,20.7668765 C68.1683132,16.7629979 63.3179548,14.1752683 58.3628637,12.246486 C52.807531,10.0848828 46.9909299,8.60785852 40.9547281,8.67727759 C37.8048668,8.71252113 34.550273,9.00087728 31.4747381,9.67264033 C27.8868017,10.4565419 24.5770262,12.0392968 21.1895458,13.3561233 C16.9236629,15.0147052 12.0980799,17.0759177 10.1813606,21.3553367 C10.0417172,21.6682565 10.5270908,21.9405929 10.6678605,21.6244691 C12.6893124,17.1090253 17.9191857,15.2325743 22.3517398,13.4725337 C28.835026,10.896552 34.8261815,9.13010356 41.9525033,9.21020249 C51.9933195,9.32447697 64.7188941,13.5590406 71.1785309,21.1449435 C71.4071408,21.4119399 71.8035481,21.031737 71.5771905,20.7668765" id="Fill-3" fill="#9F6CAD"></path>
            <path d="M63.4291065,36.0315972 C65.4426753,35.6898417 68.0790089,36.1084921 68.7130353,38.2476676 C68.8121371,38.5787432 69.356071,38.4377691 69.2569692,38.1056255 C68.531724,35.6631421 65.6082203,35.1206053 63.2793276,35.516828 C62.9234619,35.5766352 63.0754931,36.0924723 63.4291065,36.0315972" id="Fill-5" fill="#9F6CAD"></path>
            <path d="M61.5231983,36.404965 C63.3408157,37.3212968 64.2969231,38.9093916 64.339717,40.8467178 C64.3476001,41.1895412 64.9106787,41.1906092 64.9027956,40.8467178 C64.855497,38.7256981 63.7991617,36.9485697 61.808116,35.9435951 C61.4882874,35.7833973 61.2033697,36.2436991 61.5231983,36.404965" id="Fill-7" fill="#9F6CAD"></path>
            <path d="M59.4116538,37.3394525 C60.9499843,38.1372379 61.442115,39.7531004 60.717996,41.2461445 C60.5682171,41.5558604 61.0535908,41.8281967 61.2044958,41.5152769 C62.0536182,39.7637802 61.520946,37.8243181 59.6965715,36.8780827 C59.3778691,36.7136129 59.0940775,37.1749827 59.4116538,37.3394525" id="Fill-9" fill="#9F6CAD"></path>
            <path d="M56.6357893,39.2459139 C57.2427879,40.0533112 57.9263653,40.9162437 57.3396375,41.9137424 C57.163957,42.2138464 57.6493306,42.4840468 57.8261373,42.1828748 C58.5209762,41.0006146 57.8700574,39.9721443 57.1222891,38.9767815 C56.9139501,38.6991052 56.4251979,38.9650337 56.6357893,39.2459139" id="Fill-11" fill="#9F6CAD"></path>
            <path d="M52.3731723,37.8734454 C54.2729992,38.6349193 54.4351658,41.5943078 53.160356,42.9271541 C52.9171061,43.1824027 53.3146396,43.5604697 53.5590156,43.3052211 C55.0522999,41.7427579 54.9115302,38.3155915 52.65809,37.4120756 C52.328126,37.2796453 52.0398298,37.7399472 52.3731723,37.8734454" id="Fill-13" fill="#9F6CAD"></path>
            <path d="M49.2113737,37.1182727 C45.9804292,36.3963143 43.8531185,39.4315299 43.7878014,42.1815932 C43.7799183,42.5254846 44.3429968,42.5254846 44.3508799,42.1815932 C44.4071878,39.8010529 46.1977775,36.9933183 49.0615948,37.6330418 C49.4152082,37.7131408 49.5638609,37.1973036 49.2113737,37.1182727" id="Fill-15" fill="#9F6CAD"></path>
            <path d="M42.5203116,36.9753762 C40.2364651,37.1932453 38.8242642,39.1124157 38.1665885,41.043334 C38.0550989,41.3701376 38.5990328,41.5111118 38.7093962,41.1843081 C39.2792317,39.5097064 40.5089952,37.7026745 42.5203116,37.5093691 C42.8773034,37.4751935 42.8806819,36.9412006 42.5203116,36.9753762" id="Fill-17" fill="#9F6CAD"></path>
            <path d="M50.2616278,38.9414312 C51.5094098,39.4658122 51.5139144,40.6555484 51.388911,41.7812054 C51.3517478,42.1229608 51.9148263,42.1208248 51.9519895,41.7812054 C52.0983899,40.4675829 51.976765,39.0824053 50.5465455,38.4800613 C50.2177077,38.3422912 49.9305376,38.802593 50.2616278,38.9414312" id="Fill-19" fill="#9F6CAD"></path>
            <path d="M47.6705657,37.8316872 C48.7077563,39.0203553 48.9746555,40.6169941 48.7246487,42.1111062 C48.6683408,42.4464537 49.2100223,42.5916998 49.2674564,42.2531483 C49.5535002,40.5529149 49.2460594,38.8035542 48.0692253,37.4536202 C47.8372369,37.1887597 47.4419558,37.5689627 47.6705657,37.8316872" id="Fill-21" fill="#9F6CAD"></path>
            <path d="M56.51484,38.3886418 C55.7073854,37.7510543 54.8909216,37.1519142 53.9246788,36.7450117 C53.595841,36.6072415 53.3086709,37.0675434 53.6397611,37.2063815 C54.564336,37.5951283 55.3436367,38.1568888 56.1161804,38.7667087 C56.3943412,38.9845778 56.794127,38.6086468 56.51484,38.3886418" id="Fill-23" fill="#9F6CAD"></path>
            <path d="M33.7267143,35.9167887 C30.6534318,35.1595868 28.0137196,38.5333538 27.4675335,41.0431204 C27.3954594,41.3784679 27.9382671,41.521578 28.0114673,41.1851625 C28.4900841,38.9808399 30.8234815,35.7533869 33.5769354,36.4315578 C33.9282964,36.5180647 34.0780753,36.0032955 33.7267143,35.9167887" id="Fill-25" fill="#9F6CAD"></path>
            <path d="M37.8090336,37.3852691 C35.7369047,36.5810758 33.5690523,36.7006902 31.3944431,36.3268952 C28.9867193,35.9135847 26.6521958,35.0090008 24.4494326,34.0253859 C20.4324304,32.2311698 17.8467738,29.8057741 16.6091272,25.6908249 C16.5100254,25.3608173 15.9660915,25.5007235 16.0651934,25.832867 C17.1755842,29.5216899 19.3051472,32.0699039 22.8728127,33.8790718 C24.9528248,34.9331738 27.2355451,35.8569815 29.5047516,36.4614614 C32.1737438,37.17274 35.0927428,36.9046755 37.6592547,37.9000383 C37.9948495,38.0303325 38.14125,37.5144954 37.8090336,37.3852691" id="Fill-27" fill="#9F6CAD"></path>
            <path d="M28.0210397,34.8394046 C25.0355973,35.0540698 21.2573404,36.9636283 21.2640974,40.1793335 C21.2652235,40.5232249 21.828302,40.5232249 21.8271759,40.1793335 C21.8204189,37.2797521 25.3464167,35.566703 28.0210397,35.3733975 C28.3802838,35.3477659 28.3836622,34.813773 28.0210397,34.8394046" id="Fill-29" fill="#9F6CAD"></path>
            <path d="M26.2735818,36.6531649 C24.2836623,38.1163054 23.9536982,40.4989816 24.7938114,42.6531089 C24.9188148,42.9735047 25.4627487,42.8346665 25.3366191,42.5110668 C24.5606969,40.5182054 24.8230915,38.3897097 26.6722414,37.0312318 C26.9571591,36.8208386 26.5573733,36.4459756 26.2735818,36.6531649" id="Fill-31" fill="#9F6CAD"></path>
            <path d="M33.0877328,37.1453995 C30.7948771,38.7559221 30.0426042,41.2902523 29.5797536,43.8459423 C29.5189411,44.1823578 30.0606227,44.3276038 30.1225613,43.9879844 C30.5550056,41.6021041 31.2149337,39.1211732 33.3726506,37.6067694 C33.6609468,37.4038521 33.3794075,36.9414142 33.0877328,37.1453995" id="Fill-33" fill="#9F6CAD"></path>
            <path d="M22.1109675,31.9389689 C18.8383551,30.0902855 14.9553656,31.7307117 12.8562089,34.4380556 C12.642239,34.7157319 13.129865,34.9816603 13.3427087,34.707188 C15.259428,32.2348009 18.8270935,30.7054453 21.8260497,32.4003387 C22.1379952,32.5765564 22.4217868,32.1151865 22.1109675,31.9389689" id="Fill-35" fill="#9F6CAD"></path>
            <path d="M23.5913009,33.113326 C21.0720876,32.5814691 17.9650203,33.2382804 16.9098111,35.7031915 C16.7746723,36.0214513 17.3197323,36.1602894 17.453745,35.8452336 C18.3828246,33.6718826 21.2635343,33.1688613 23.441522,33.6280952 C23.7951353,33.7039222 23.9449142,33.188085 23.5913009,33.113326" id="Fill-37" fill="#9F6CAD"></path>
            <path d="M19.5771141,30.3369902 C16.9002388,28.6623885 12.2390748,28.4338396 10.9980497,31.8311023 C10.8786771,32.156838 11.4237371,32.2967441 11.5408574,31.9731444 C12.6602575,28.9080253 16.9633036,29.3394915 19.2921964,30.7983601 C19.5962588,30.9873936 19.8789242,30.5260237 19.5771141,30.3369902" id="Fill-39" fill="#9F6CAD"></path>
            <path d="M17.4655696,26.4655418 C15.3067266,24.9949254 11.8539291,24.6019066 9.94396673,26.6406915 C9.70409528,26.8970081 10.1016287,27.276143 10.3426263,27.0187584 C12.0915482,25.1519193 15.2256433,25.5951334 17.1806519,26.9269117 C17.4757051,27.127693 17.7572443,26.6652551 17.4655696,26.4655418" id="Fill-41" fill="#9F6CAD"></path>
            <path d="M16.4031531,22.833963 C10.6924107,24.3942902 4.93099125,26.813278 0.488301696,21.5673319 C0.261944129,21.2992674 -0.134463151,21.6805384 0.090768258,21.9453988 C4.6674705,27.3483388 10.5662811,24.9848863 16.552932,23.3487321 C16.8997883,23.2547494 16.7533879,22.7389123 16.4031531,22.833963" id="Fill-43" fill="#9F6CAD"></path>
            <path d="M18.6554672,20.6979914 C12.4052956,21.8172405 6.05151751,21.2522761 2.50299665,15.6143792 C2.3183069,15.3196151 1.83180705,15.5887475 2.01762297,15.8835116 C5.69903035,21.7339376 12.2701567,22.382205 18.8052461,21.2127606 C19.1611117,21.1497494 19.0102067,20.6339123 18.6554672,20.6979914" id="Fill-45" fill="#9F6CAD"></path>
            <path d="M23.5164115,18.5526216 C19.3563873,19.0417591 14.7909467,18.0431924 11.6838794,15.2365258 C9.12975518,12.9275406 8.42478087,9.60290086 8.17252169,6.40428348 C8.14662008,6.064664 7.58354156,6.06146004 7.60944317,6.40428348 C7.87409008,9.76096276 8.63311992,13.1881291 11.2863459,15.6135248 C14.4699919,18.525922 19.2268793,19.5917718 23.5164115,19.0866145 C23.8711509,19.0449631 23.8756556,18.5109702 23.5164115,18.5526216" id="Fill-47" fill="#9F6CAD"></path>
            <path d="M20.7010188,20.0211021 C13.8404701,20.2101355 7.85044078,15.744887 6.33238108,9.40425551 C6.25242393,9.06890798 5.70961623,9.21095008 5.78957338,9.54522963 C7.36168862,16.1154781 13.5915894,20.7505363 20.7010188,20.5550949 C21.0625153,20.5454831 21.0636414,20.0114902 20.7010188,20.0211021" id="Fill-49" fill="#9F6CAD"></path>
            <path d="M15.7082016,20.2974968 C11.2238442,18.9892142 6.25749163,17.0198484 4.05134998,12.8109165 C3.89143568,12.5033366 3.40493583,12.773537 3.56597629,13.0800489 C5.83743505,17.4160712 10.9310434,19.4633999 15.5584227,20.8122659 C15.9064052,20.9137246 16.0550579,20.3989554 15.7082016,20.2974968" id="Fill-51" fill="#9F6CAD"></path>
            <path d="M24.6425685,16.6836465 C19.6649544,17.1877358 14.026286,13.6794026 13.8033069,8.67375324 C13.7886669,8.33199779 13.2244622,8.32986182 13.2402284,8.67375324 C13.4755952,13.9506709 19.3406211,17.7537683 24.6425685,17.2176394 C24.9995603,17.1823959 25.0029388,16.647335 24.6425685,16.6836465" id="Fill-53" fill="#9F6CAD"></path>
            <path d="M28.4456009,15.9191823 C24.9590186,14.1612777 22.6278736,11.7956892 22.6717937,7.87297751 C22.6762983,7.53015408 22.1132198,7.52908609 22.1087152,7.87297751 C22.0636689,11.9740429 24.4916635,14.5297328 28.1606831,16.3805522 C28.4805117,16.541818 28.7654295,16.0804482 28.4456009,15.9191823" id="Fill-55" fill="#9F6CAD"></path>
            <path d="M26.474826,15.7856841 C23.068201,14.0769069 20.9239979,11.886468 19.8462656,8.33541535 C19.7460377,8.00647573 19.20323,8.14638187 19.3034579,8.47745746 C20.4217319,12.1620084 22.6447659,14.4688576 26.1899083,16.2470539 C26.5097369,16.4072518 26.7946546,15.945882 26.474826,15.7856841" id="Fill-57" fill="#9F6CAD"></path>
            <path d="M33.9356165,14.1837054 C30.3364185,12.4749282 27.9309471,8.76367764 29.5593702,5.0065037 C29.6967613,4.68931193 29.1528275,4.55047378 29.0165625,4.86446159 C27.2946684,8.83950463 29.837531,12.8348394 33.6506987,14.6450753 C33.9739058,14.7977973 34.2599497,14.3385634 33.9356165,14.1837054" id="Fill-59" fill="#9F6CAD"></path>
            <path d="M34.3941876,3.86685608 C32.0529071,7.34314977 33.4054217,11.8692735 36.5496522,14.4698188 C36.8221822,14.6951638 37.221968,14.3181648 36.9483118,14.0917519 C33.9887711,11.6449965 32.6644104,7.42752065 34.8806875,4.1359885 C35.0755126,3.84549637 34.5890128,3.57743194 34.3941876,3.86685608" id="Fill-61" fill="#9F6CAD"></path>
            <path d="M40.2679975,3.20032616 C40.1576342,6.8378857 38.1789762,11.2241033 41.0540552,14.3362138 C41.2939266,14.5946664 41.69146,14.2155314 41.4527148,13.9581468 C38.7307932,11.0126421 40.7263435,6.66700798 40.8310761,3.20032616 C40.8423376,2.85750273 40.2792591,2.85750273 40.2679975,3.20032616" id="Fill-63" fill="#9F6CAD"></path>
            <path d="M37.9574611,5.0140864 C35.1037792,7.7160904 36.4427799,11.8278356 39.0836182,14.203036 C39.3460128,14.4390608 39.7457985,14.0620619 39.4822778,13.824969 C37.0768063,11.6622978 35.7085255,7.89764798 38.3561207,5.39215336 C38.6128845,5.14865261 38.2153511,4.77058564 37.9574611,5.0140864" id="Fill-65" fill="#9F6CAD"></path>
            <path d="M43.3748396,7.67678852 C44.2160789,9.64615429 44.8399699,12.7134094 43.0246048,14.3591755 C42.7633363,14.5962683 43.1619959,14.9743353 43.4232644,14.7361745 C45.3962915,12.9472983 44.8388438,9.6899417 43.9176473,7.53474642 C43.7836346,7.2207586 43.2397008,7.35746078 43.3748396,7.67678852" id="Fill-67" fill="#9F6CAD"></path>
            <path d="M46.1902322,5.14032232 C47.235306,8.01000008 47.0044438,11.5802765 44.85461,13.9586808 C44.6203693,14.2182014 45.0179027,14.5973363 45.2532696,14.3356798 C47.5337376,11.8130974 47.8490616,8.06233139 46.7330399,4.99828021 C46.6159196,4.67574851 46.0731119,4.81458666 46.1902322,5.14032232" id="Fill-69" fill="#9F6CAD"></path>
            <path d="M49.3598012,6.05911048 C51.3835054,8.32110434 51.4758503,13.0608252 48.7133871,14.8507693 C48.4160816,15.0440748 48.6976209,15.5075806 48.9983048,15.3121392 C52.0873536,13.3085979 52.0321719,8.22391763 49.7584608,5.68104351 C49.5242202,5.419387 49.1266867,5.79852195 49.3598012,6.05911048" id="Fill-71" fill="#9F6CAD"></path>
            <path d="M52.5248656,7.5432903 C53.1037103,9.9451903 53.8931464,13.5656621 51.8930915,15.5606595 C51.6442108,15.8095002 52.0417442,16.1886351 52.2917511,15.9376585 C54.4697388,13.7653754 53.7005736,10.0295612 53.0676733,7.4012482 C52.9877162,7.06696865 52.4449085,7.20901076 52.5248656,7.5432903" id="Fill-73" fill="#9F6CAD"></path>
            <path d="M56.4565051,7.87276391 C56.4992991,10.8278805 54.691817,14.1503843 52.0915204,15.7854705 C51.7908365,15.974504 52.0723757,16.4380098 52.3764381,16.2468403 C55.1501629,14.5017516 57.0657561,11.0297299 57.0195836,7.87276391 C57.015079,7.52994048 56.4520005,7.52887249 56.4565051,7.87276391" id="Fill-75" fill="#9F6CAD"></path>
            <path d="M60.2671953,9.94625829 C61.1219485,13.196139 58.0486659,17.4168188 54.2794183,16.5592262 C53.9269311,16.4801952 53.7771523,16.9949644 54.1296394,17.0750633 C58.3200698,18.0277066 61.7717411,13.4599315 60.810003,9.80421618 C60.7232889,9.47207261 60.1804812,9.61304673 60.2671953,9.94625829" id="Fill-77" fill="#9F6CAD"></path>
            <path d="M58.5779597,11.1393052 C58.0272689,13.3094523 55.8177488,14.9242468 53.9213004,16.0531077 C53.6161118,16.2346653 53.8976511,16.6971031 54.2062181,16.5134096 C56.2321746,15.3065857 58.5329135,13.5978084 59.1207674,11.2813473 C59.2063554,10.9470678 58.6635477,10.8050256 58.5779597,11.1393052" id="Fill-79" fill="#9F6CAD"></path>
            <path d="M64.7718235,13.2752767 C64.0567138,15.7070803 61.6163315,20.3677702 58.2885374,18.4560757 C57.977718,18.2777221 57.6939265,18.7390919 58.0036196,18.9163776 C61.7188117,21.0502132 64.4936627,16.2111696 65.3146312,13.4173188 C65.4126069,13.0851753 64.8697992,12.9442011 64.7718235,13.2752767" id="Fill-81" fill="#9F6CAD"></path>
            <path d="M63.3641272,12.7412839 C62.73911,15.0289094 60.1343088,19.2186176 57.0948109,18.0278134 C56.7603423,17.8975192 56.615068,18.4144243 56.945032,18.5436505 C60.3133678,19.862613 63.2098437,15.433676 63.9069349,12.883326 C63.9981536,12.5501144 63.4553459,12.4080723 63.3641272,12.7412839" id="Fill-83" fill="#9F6CAD"></path>
            <path d="M69.7713977,15.9609406 C68.0134666,17.7113692 64.1822803,20.7786244 61.526802,19.1232464 C61.2216134,18.9342129 60.9400742,19.3966508 61.2418842,19.5846163 C64.1755233,21.4119399 68.2263102,18.2731298 70.1700573,16.3390075 C70.4200642,16.0901668 70.0225307,15.7120999 69.7713977,15.9609406" id="Fill-85" fill="#9F6CAD"></path>
            <path d="M74.8391044,15.4269477 C72.2894849,17.8363236 68.1035591,22.0174879 64.1327294,20.431529 C63.7993869,20.2990988 63.6541126,20.8149359 63.9829505,20.9462981 C68.1790117,22.6219678 72.5653933,18.329733 75.237764,15.8050146 C75.4945278,15.5615139 75.0969944,15.1834469 74.8391044,15.4269477" id="Fill-87" fill="#9F6CAD"></path>
            <path d="M74.5135324,20.9546284 C73.2826428,22.7766122 69.7375004,24.0176116 67.7205531,22.7274848 C67.418743,22.5341794 67.1360776,22.9976852 67.4356354,23.1888547 C69.7183557,24.6487912 73.6126068,23.2785655 75.0000323,21.2237608 C75.1959836,20.9332687 74.7094838,20.6652043 74.5135324,20.9546284" id="Fill-89" fill="#9F6CAD"></path>
            <path d="M74.7664673,22.6201522 C74.4252417,24.360969 72.7810524,26.2181963 70.8147822,26.2950913 C70.454412,26.3100431 70.4521597,26.844036 70.8147822,26.8290842 C73.0265547,26.7415093 74.9207508,24.7465119 75.309275,22.7621943 C75.3757183,22.4257788 74.8340367,22.2826687 74.7664673,22.6201522" id="Fill-91" fill="#9F6CAD"></path>
            <path d="M75.8817006,27.800524 C74.901944,28.3131572 73.8253379,28.6495727 72.7194516,28.3078173 C72.3748476,28.2010187 72.227321,28.7157878 72.5707989,28.8225864 C73.8152024,29.2081293 75.059606,28.8418101 76.1666184,28.2618939 C76.4830685,28.0952881 76.1992769,27.6349862 75.8817006,27.800524" id="Fill-93" fill="#9F6CAD"></path>
            <path d="M32.450891,15.625059 C26.290812,17.0454801 23.9439007,6.16163711 26.2930643,2.40019122 C26.4788802,2.10435916 25.9923803,1.83522675 25.8076906,2.13105881 C23.2062678,6.29620332 25.8572415,17.6948155 32.6006699,16.1398282 C32.9520309,16.0586613 32.8033782,15.5438921 32.450891,15.625059" id="Fill-95" fill="#9F6CAD"></path>
            <path d="M32.4597877,13.6225857 C27.3943333,12.5877075 21.7815665,7.36952902 21.6869693,2.26562502 C21.6813386,1.92280158 21.11826,1.9217336 21.1238908,2.26562502 C21.2218665,7.61623373 26.9787813,13.0480094 32.3100088,14.1373549 C32.6647482,14.2099779 32.8145271,13.6952087 32.4597877,13.6225857" id="Fill-97" fill="#9F6CAD"></path>
            <path d="M25.348669,16.0526805 C20.2460514,13.2545578 16.2515724,8.86834025 16.055621,3.06704154 C16.0443595,2.72528609 15.4812809,2.72315012 15.4925425,3.06704154 C15.6952508,9.05630575 19.7809485,13.616605 25.0637512,16.5140504 C25.3779491,16.6870641 25.6617406,16.2246262 25.348669,16.0526805" id="Fill-99" fill="#9F6CAD"></path>
            <g id="Group-103" transform="translate(12.983928, 0.394194)">
                <mask id="mask-2" fill="white">
                    <use xlink:href="#path-1"></use>
                </mask>
                <g id="Clip-102"></g>
                <path d="M7.29703396,14.457003 C2.58068824,11.9087889 0.23152464,5.9601082 1.2315521,1.00785817 C1.30024768,0.67251064 0.757439981,0.528332561 0.688744401,0.865816065 C-0.360833967,6.05943087 2.05927753,12.2430685 7.01211622,14.9183728 C7.3274402,15.0892506 7.61123177,14.6268127 7.29703396,14.457003" id="Fill-101" fill="#9F6CAD" mask="url(#mask-2)"></path>
            </g>
            <path d="M18.0286482,16.5866734 C13.5251461,14.4613817 11.530722,10.6711002 10.4147004,6.19944381 C10.3313648,5.86623225 9.78855706,6.00720637 9.87189268,6.34148591 C11.0250775,10.9583884 13.108468,14.8586724 17.7437304,17.0480433 C18.0669375,17.2007652 18.3529814,16.7404634 18.0286482,16.5866734" id="Fill-104" fill="#9F6CAD"></path>
            <path d="M60.9611333,18.8196181 C64.3396044,21.6230807 62.0872903,27.4970025 59.553437,30.0334687 C56.4565051,33.3709242 52.9372643,35.640394 48.0103272,34.9729029 C40.1272279,33.7714189 35.0595212,24.827038 38.8603012,18.0186287 C43.0833902,10.4092301 55.3303481,15.2151661 60.9611333,18.6861198" id="Fill-106" fill="#363536"></path>
            <g id="Group-110" transform="translate(0.000000, 16.413980)">
                <mask id="mask-4" fill="white">
                    <use xlink:href="#path-3"></use>
                </mask>
                <g id="Clip-109"></g>
                <path d="M13.5217677,5.74309349 C8.21081103,6.32941767 2.65660447,5.91824315 0.56082621,0.466175789 C0.438075091,0.145780058 -0.106984919,0.284618208 0.0180185128,0.607149911 C2.19825856,6.28135832 7.87183776,6.89972208 13.5217677,6.27708637 C13.8776333,6.23863888 13.8821379,5.70357801 13.5217677,5.74309349" id="Fill-108" fill="#9F6CAD" mask="url(#mask-4)"></path>
            </g>
            <path d="M50.9664895,16.4166501 C57.3011229,15.749159 56.878814,27.8974971 50.1218717,27.3635042 C43.5056991,26.9630096 42.8018509,15.749159 50.2626413,16.1496536" id="Fill-111" fill="#231F20"></path>
            <path d="M50.9664895,16.950643 C56.7234043,16.5853918 55.9587437,26.9843693 50.3380939,26.8380552 C44.229818,26.6799933 43.6194409,16.5501483 50.2626413,16.6836465 C50.9890126,16.6985983 50.9878865,15.6306126 50.2626413,15.6156608 C42.1779599,15.4543949 42.7725708,27.7383672 50.3380939,27.906041 C57.3934678,28.0630349 58.2178147,15.4223553 50.9664895,15.8826572 C50.2468751,15.9285806 50.2412444,16.9965664 50.9664895,16.950643" id="Fill-113" fill="#231F20"></path>
            <g id="Group-117" transform="translate(16.892356, 13.210023)">
                <mask id="mask-6" fill="white">
                    <use xlink:href="#path-5"></use>
                </mask>
                <g id="Clip-116"></g>
                <path d="M63.6259587,23.5609409 C61.4164386,17.9155681 56.9410905,13.5955657 51.982621,9.98577376 C46.3811158,5.90606812 40.3032463,2.81531729 33.3852635,1.30838937 C27.1846428,-0.0436806181 20.8229817,-0.453787154 14.7428598,1.58072574 C9.13684997,3.45610876 4.18063281,6.84375962 0.60958881,11.3485236 C0.3922405,11.6229959 0.880992658,11.8899924 1.09608865,11.617656 C4.73582823,7.0253172 9.91502449,3.59921885 15.6832009,1.84238225 C21.7115196,0.00651471321 28.0945777,0.589634944 34.1544288,2.03248372 C40.2232891,3.47640048 45.6310952,6.17840449 50.6379895,9.69207767 C55.8746198,13.3691527 60.7700244,17.7927498 63.083151,23.702983 C63.2081544,24.0223108 63.7520883,23.8845406 63.6259587,23.5609409" id="Fill-115" fill="#9F6CAD" mask="url(#mask-6)"></path>
            </g>
        </g>
    </g>
</svg>